<mxfile host="Electron" agent="Mozilla/5.0 (Windows NT 10.0; Win64; x64) AppleWebKit/537.36 (KHTML, like Gecko) draw.io/26.0.16 Chrome/132.0.6834.196 Electron/34.2.0 Safari/537.36" version="26.0.16">
  <diagram name="Page-1" id="e7e014a7-5840-1c2e-5031-d8a46d1fe8dd">
    <mxGraphModel dx="1391" dy="686" grid="1" gridSize="10" guides="1" tooltips="1" connect="1" arrows="1" fold="1" page="1" pageScale="1" pageWidth="1169" pageHeight="826" background="none" math="0" shadow="0">
      <root>
        <mxCell id="0" />
        <mxCell id="1" parent="0" />
        <mxCell id="2" value="Admin" style="swimlane;whiteSpace=wrap" parent="1" vertex="1">
          <mxGeometry x="240" y="67" width="335.5" height="692" as="geometry" />
        </mxCell>
        <mxCell id="5" value="" style="ellipse;shape=startState;fillColor=#000000;strokeColor=#ff0000;" parent="2" vertex="1">
          <mxGeometry x="132.75" y="40" width="30" height="30" as="geometry" />
        </mxCell>
        <mxCell id="6" value="" style="edgeStyle=elbowEdgeStyle;elbow=horizontal;verticalAlign=bottom;endArrow=open;endSize=8;strokeColor=#FF0000;endFill=1;rounded=0" parent="2" source="5" edge="1">
          <mxGeometry x="100" y="40" as="geometry">
            <mxPoint x="147.25" y="110" as="targetPoint" />
          </mxGeometry>
        </mxCell>
        <mxCell id="a-tmV57lk9S0yQ-MziJM-41" value="Chọn chức năng tra cứu thông tin tài khoản" style="rounded=1;whiteSpace=wrap;html=1;" vertex="1" parent="2">
          <mxGeometry x="95.5" y="112" width="104.5" height="48" as="geometry" />
        </mxCell>
        <mxCell id="a-tmV57lk9S0yQ-MziJM-42" value="" style="endArrow=classic;html=1;rounded=0;exitX=1;exitY=0.5;exitDx=0;exitDy=0;" edge="1" parent="2" source="a-tmV57lk9S0yQ-MziJM-41">
          <mxGeometry width="50" height="50" relative="1" as="geometry">
            <mxPoint x="205.5" y="172" as="sourcePoint" />
            <mxPoint x="425.5" y="136" as="targetPoint" />
          </mxGeometry>
        </mxCell>
        <mxCell id="a-tmV57lk9S0yQ-MziJM-48" value="Yêu cầu đăng nhập" style="rounded=1;whiteSpace=wrap;html=1;" vertex="1" parent="2">
          <mxGeometry x="105.5" y="197" width="84.5" height="48" as="geometry" />
        </mxCell>
        <mxCell id="a-tmV57lk9S0yQ-MziJM-53" value="Nhập thông tin người dùng cần tra cứu" style="rounded=1;whiteSpace=wrap;html=1;" vertex="1" parent="2">
          <mxGeometry x="105.5" y="285" width="102.5" height="48" as="geometry" />
        </mxCell>
        <mxCell id="a-tmV57lk9S0yQ-MziJM-63" value="Báo lỗi và yêu cầu chỉnh sửa thông tin" style="rounded=1;whiteSpace=wrap;html=1;" vertex="1" parent="2">
          <mxGeometry x="96.75" y="460" width="120" height="60" as="geometry" />
        </mxCell>
        <mxCell id="a-tmV57lk9S0yQ-MziJM-64" value="" style="endArrow=classic;html=1;rounded=0;entryX=0.25;entryY=1;entryDx=0;entryDy=0;exitX=0.281;exitY=0;exitDx=0;exitDy=0;exitPerimeter=0;" edge="1" parent="2" source="a-tmV57lk9S0yQ-MziJM-63" target="a-tmV57lk9S0yQ-MziJM-53">
          <mxGeometry width="50" height="50" relative="1" as="geometry">
            <mxPoint x="65.5" y="452" as="sourcePoint" />
            <mxPoint x="115.5" y="402" as="targetPoint" />
          </mxGeometry>
        </mxCell>
        <mxCell id="3" value="s" style="swimlane;whiteSpace=wrap" parent="1" vertex="1">
          <mxGeometry x="575.5" y="67" width="340" height="692" as="geometry" />
        </mxCell>
        <mxCell id="a-tmV57lk9S0yQ-MziJM-43" value="Kiểm tra đăng nhập" style="rounded=1;whiteSpace=wrap;html=1;" vertex="1" parent="3">
          <mxGeometry x="90" y="114" width="90" height="44" as="geometry" />
        </mxCell>
        <mxCell id="a-tmV57lk9S0yQ-MziJM-44" value="Tài khoản" style="rounded=0;whiteSpace=wrap;html=1;" vertex="1" parent="3">
          <mxGeometry x="200" y="52" width="100" height="48" as="geometry" />
        </mxCell>
        <mxCell id="a-tmV57lk9S0yQ-MziJM-45" value="" style="html=1;labelBackgroundColor=#ffffff;startArrow=none;startFill=0;startSize=6;endArrow=classic;endFill=1;endSize=6;jettySize=auto;orthogonalLoop=1;strokeWidth=1;dashed=1;fontSize=14;rounded=0;entryX=0.75;entryY=0;entryDx=0;entryDy=0;exitX=0;exitY=0.5;exitDx=0;exitDy=0;" edge="1" parent="3" source="a-tmV57lk9S0yQ-MziJM-44" target="a-tmV57lk9S0yQ-MziJM-43">
          <mxGeometry width="60" height="60" relative="1" as="geometry">
            <mxPoint x="130" y="232" as="sourcePoint" />
            <mxPoint x="190" y="172" as="targetPoint" />
          </mxGeometry>
        </mxCell>
        <mxCell id="a-tmV57lk9S0yQ-MziJM-46" value="" style="rhombus;whiteSpace=wrap;html=1;" vertex="1" parent="3">
          <mxGeometry x="92.5" y="192" width="85" height="58" as="geometry" />
        </mxCell>
        <mxCell id="a-tmV57lk9S0yQ-MziJM-47" value="" style="endArrow=classic;html=1;rounded=0;entryX=0.5;entryY=0;entryDx=0;entryDy=0;exitX=0.5;exitY=1;exitDx=0;exitDy=0;" edge="1" parent="3" source="a-tmV57lk9S0yQ-MziJM-43" target="a-tmV57lk9S0yQ-MziJM-46">
          <mxGeometry width="50" height="50" relative="1" as="geometry">
            <mxPoint x="-170" y="282" as="sourcePoint" />
            <mxPoint x="-120" y="232" as="targetPoint" />
          </mxGeometry>
        </mxCell>
        <mxCell id="a-tmV57lk9S0yQ-MziJM-54" value="Đúng" style="text;html=1;align=center;verticalAlign=middle;resizable=0;points=[];autosize=1;strokeColor=none;fillColor=none;" vertex="1" parent="3">
          <mxGeometry x="130" y="240" width="50" height="30" as="geometry" />
        </mxCell>
        <mxCell id="a-tmV57lk9S0yQ-MziJM-56" value="Kiểm tra thông tin cần tra cứu" style="rounded=1;whiteSpace=wrap;html=1;" vertex="1" parent="3">
          <mxGeometry x="72.5" y="362" width="105" height="48" as="geometry" />
        </mxCell>
        <mxCell id="a-tmV57lk9S0yQ-MziJM-57" value="Tài khoản" style="rounded=1;whiteSpace=wrap;html=1;" vertex="1" parent="3">
          <mxGeometry x="200" y="292" width="90" height="48" as="geometry" />
        </mxCell>
        <mxCell id="a-tmV57lk9S0yQ-MziJM-58" value="" style="html=1;labelBackgroundColor=#ffffff;startArrow=none;startFill=0;startSize=6;endArrow=classic;endFill=1;endSize=6;jettySize=auto;orthogonalLoop=1;strokeWidth=1;dashed=1;fontSize=14;rounded=0;entryX=0.75;entryY=0;entryDx=0;entryDy=0;exitX=0;exitY=0.5;exitDx=0;exitDy=0;" edge="1" parent="3" source="a-tmV57lk9S0yQ-MziJM-57" target="a-tmV57lk9S0yQ-MziJM-56">
          <mxGeometry width="60" height="60" relative="1" as="geometry">
            <mxPoint x="252" y="212" as="sourcePoint" />
            <mxPoint x="210" y="250" as="targetPoint" />
          </mxGeometry>
        </mxCell>
        <mxCell id="a-tmV57lk9S0yQ-MziJM-59" value="" style="endArrow=classic;html=1;rounded=0;exitX=0.5;exitY=1;exitDx=0;exitDy=0;entryX=0.5;entryY=0;entryDx=0;entryDy=0;" edge="1" parent="3" source="a-tmV57lk9S0yQ-MziJM-56" target="a-tmV57lk9S0yQ-MziJM-60">
          <mxGeometry width="50" height="50" relative="1" as="geometry">
            <mxPoint x="110" y="492" as="sourcePoint" />
            <mxPoint x="125" y="462" as="targetPoint" />
          </mxGeometry>
        </mxCell>
        <mxCell id="a-tmV57lk9S0yQ-MziJM-60" value="" style="rhombus;whiteSpace=wrap;html=1;" vertex="1" parent="3">
          <mxGeometry x="82.5" y="462" width="85" height="58" as="geometry" />
        </mxCell>
        <mxCell id="a-tmV57lk9S0yQ-MziJM-62" value="Sai" style="text;html=1;align=center;verticalAlign=middle;resizable=0;points=[];autosize=1;strokeColor=none;fillColor=none;" vertex="1" parent="3">
          <mxGeometry x="50" y="462" width="40" height="30" as="geometry" />
        </mxCell>
        <mxCell id="a-tmV57lk9S0yQ-MziJM-65" value="" style="endArrow=classic;html=1;rounded=0;exitX=0.5;exitY=1;exitDx=0;exitDy=0;entryX=0.5;entryY=0;entryDx=0;entryDy=0;" edge="1" parent="3" source="a-tmV57lk9S0yQ-MziJM-60" target="a-tmV57lk9S0yQ-MziJM-66">
          <mxGeometry width="50" height="50" relative="1" as="geometry">
            <mxPoint x="170" y="652" as="sourcePoint" />
            <mxPoint x="125" y="572" as="targetPoint" />
          </mxGeometry>
        </mxCell>
        <mxCell id="a-tmV57lk9S0yQ-MziJM-66" value="Hiển thị thông tin tài khoản cần tra cứu" style="rounded=1;whiteSpace=wrap;html=1;" vertex="1" parent="3">
          <mxGeometry x="65" y="562" width="120" height="60" as="geometry" />
        </mxCell>
        <mxCell id="a-tmV57lk9S0yQ-MziJM-67" value="" style="endArrow=classic;html=1;rounded=0;exitX=1;exitY=0.5;exitDx=0;exitDy=0;" edge="1" parent="3" source="a-tmV57lk9S0yQ-MziJM-66">
          <mxGeometry width="50" height="50" relative="1" as="geometry">
            <mxPoint x="240" y="592" as="sourcePoint" />
            <mxPoint x="260" y="592" as="targetPoint" />
          </mxGeometry>
        </mxCell>
        <mxCell id="a-tmV57lk9S0yQ-MziJM-68" value="" style="ellipse;html=1;shape=endState;fillColor=#000000;strokeColor=#ff0000;" vertex="1" parent="3">
          <mxGeometry x="260" y="577" width="30" height="30" as="geometry" />
        </mxCell>
        <mxCell id="a-tmV57lk9S0yQ-MziJM-49" value="" style="endArrow=classic;html=1;rounded=0;entryX=1;entryY=0.5;entryDx=0;entryDy=0;exitX=0;exitY=0.5;exitDx=0;exitDy=0;" edge="1" parent="1" source="a-tmV57lk9S0yQ-MziJM-46" target="a-tmV57lk9S0yQ-MziJM-48">
          <mxGeometry width="50" height="50" relative="1" as="geometry">
            <mxPoint x="485.5" y="329" as="sourcePoint" />
            <mxPoint x="535.5" y="279" as="targetPoint" />
          </mxGeometry>
        </mxCell>
        <mxCell id="a-tmV57lk9S0yQ-MziJM-50" value="Sai" style="text;html=1;align=center;verticalAlign=middle;resizable=0;points=[];autosize=1;strokeColor=none;fillColor=none;" vertex="1" parent="1">
          <mxGeometry x="635.5" y="257" width="40" height="30" as="geometry" />
        </mxCell>
        <mxCell id="a-tmV57lk9S0yQ-MziJM-51" value="" style="endArrow=classic;html=1;rounded=0;entryX=0;entryY=0.5;entryDx=0;entryDy=0;exitX=1;exitY=0.5;exitDx=0;exitDy=0;" edge="1" parent="1" source="a-tmV57lk9S0yQ-MziJM-48" target="a-tmV57lk9S0yQ-MziJM-43">
          <mxGeometry width="50" height="50" relative="1" as="geometry">
            <mxPoint x="505.5" y="289" as="sourcePoint" />
            <mxPoint x="555.5" y="239" as="targetPoint" />
          </mxGeometry>
        </mxCell>
        <mxCell id="a-tmV57lk9S0yQ-MziJM-52" value="" style="endArrow=classic;html=1;rounded=0;exitX=0.5;exitY=1;exitDx=0;exitDy=0;entryX=1;entryY=0.5;entryDx=0;entryDy=0;" edge="1" parent="1" source="a-tmV57lk9S0yQ-MziJM-46" target="a-tmV57lk9S0yQ-MziJM-53">
          <mxGeometry width="50" height="50" relative="1" as="geometry">
            <mxPoint x="415.5" y="399" as="sourcePoint" />
            <mxPoint x="465.5" y="349" as="targetPoint" />
            <Array as="points">
              <mxPoint x="710.5" y="379" />
            </Array>
          </mxGeometry>
        </mxCell>
        <mxCell id="a-tmV57lk9S0yQ-MziJM-55" value="" style="endArrow=classic;html=1;rounded=0;exitX=0.5;exitY=1;exitDx=0;exitDy=0;entryX=0;entryY=0.5;entryDx=0;entryDy=0;" edge="1" parent="1" source="a-tmV57lk9S0yQ-MziJM-53" target="a-tmV57lk9S0yQ-MziJM-56">
          <mxGeometry width="50" height="50" relative="1" as="geometry">
            <mxPoint x="365.5" y="499" as="sourcePoint" />
            <mxPoint x="395.5" y="459" as="targetPoint" />
            <Array as="points">
              <mxPoint x="395.5" y="453" />
            </Array>
          </mxGeometry>
        </mxCell>
        <mxCell id="a-tmV57lk9S0yQ-MziJM-61" value="" style="endArrow=classic;html=1;rounded=0;exitX=0;exitY=0.5;exitDx=0;exitDy=0;entryX=1;entryY=0.5;entryDx=0;entryDy=0;" edge="1" parent="1" source="a-tmV57lk9S0yQ-MziJM-60" target="a-tmV57lk9S0yQ-MziJM-63">
          <mxGeometry width="50" height="50" relative="1" as="geometry">
            <mxPoint x="425.5" y="599" as="sourcePoint" />
            <mxPoint x="475.5" y="559" as="targetPoint" />
          </mxGeometry>
        </mxCell>
      </root>
    </mxGraphModel>
  </diagram>
</mxfile>
